# xmcd CD database file
#
# Track frame offsets:
#	150
#	32346
#	61348
#	85080
#	108502
#	123128
#	139798
#	163395
#	180383
#	199178
#	235296
#	253048
#	266577
#	290153
#	324793
#
# Disc length: 4548 seconds
#
# Revision: 1
# Processed by: cddbd v1.5.2PL0 Copyright (c) Steve Scherf et al.
# Submitted via: CDex 1.50
#
DISCID=d111c20f
DTITLE=JAZZ GREATS, THE ESSENTIAL MASTERPIECES/ TRILOGY - CD 3 THE POP PERFORMERS
DYEAR=2006
DGENRE=Jazz
TTITLE0=MOVE TO THE GROOVE - Pat Metheny and Dave Brubeck
TTITLE1=WHEEL WITHIN A WHEEL - Wunton Marsalis
TTITLE2=BLUES IN F (IN ´N OUT) - Joe Henderson
TTITLE3=NAIMA - Steve Grossman
TTITLE4=EXODUS - Quiney Jones
TTITLE5=YOU´D BE SO NICE TO COME HOME TO - Cannonball Adderley
TTITLE6=WHAT´S NEW - McCoy Tyner
TTITLE7=OVER THE RAINBOW - Paul Gonsalves
TTITLE8=EARLY AUTUMN - Woody Herman
TTITLE9=POINCIANA - Ahmad  Jamal
TTITLE10=JUST IN TIME - Sonny Rollins
TTITLE11=NOW´S THE TIME - Max Roach
TTITLE12=DAVIS - Archie Sheep
TTITLE13=IN THE SNOW - Ornette Coleman
TTITLE14=CARABUNTA - Herbie Mann
EXTD=YEAR: 2006
EXTT0=
EXTT1=
EXTT2=
EXTT3=
EXTT4=
EXTT5=
EXTT6=
EXTT7=
EXTT8=
EXTT9=
EXTT10=
EXTT11=
EXTT12=
EXTT13=
EXTT14=
PLAYORDER=
